<?xml version="1.0" standalone="no"?>
<!DOCTYPE svg PUBLIC "-//W3C//DTD SVG 20010904//EN"
 "http://www.w3.org/TR/2001/REC-SVG-20010904/DTD/svg10.dtd">
<svg version="1.0" xmlns="http://www.w3.org/2000/svg"
 width="300.000000pt" height="240.000000pt" viewBox="0 0 300.000000 240.000000"
 preserveAspectRatio="xMidYMid meet">
<metadata>
Created by potrace 1.10, written by Peter Selinger 2001-2011
</metadata>
<g transform="translate(0.000000,240.000000) scale(0.100000,-0.100000)"
fill="#000000" stroke="none">
<path d="M96 2385 c4 -8 1 -15 -6 -15 -6 0 -8 -5 -5 -10 7 -12 12 -108 16
-330 1 -85 5 -139 8 -120 4 19 5 -245 3 -587 -2 -508 -1 -623 10 -623 11 0 13
149 14 803 0 441 -2 739 -6 662 l-6 -140 -2 172 c-2 169 -6 203 -23 203 -4 0
-6 -7 -3 -15z"/>
<path d="M177 2393 c-2 -5 0 -21 4 -38 l7 -30 1 29 c1 24 3 27 16 16 8 -7 16
-24 16 -39 1 -19 3 -21 6 -7 9 34 18 -1 14 -51 -4 -40 -5 -44 -12 -23 -5 17
-7 6 -7 -35 1 -51 2 -55 8 -25 4 19 9 -116 11 -300 l3 -335 6 390 6 390 -30
33 c-30 32 -42 38 -49 25z"/>
<path d="M2947 2373 l-37 -26 0 -1063 c0 -959 2 -1062 16 -1068 31 -12 74 -7
74 9 0 9 -9 15 -25 15 -29 0 -28 -10 -25 210 6 351 4 680 -4 680 -5 0 -4 6 1
13 11 13 10 71 -3 101 -6 15 -4 17 7 11 11 -7 12 -6 3 6 -17 21 -18 209 -2
209 9 0 10 3 2 8 -8 5 -12 126 -13 407 l-1 400 32 28 33 29 -32 -21 c-38 -26
-43 -26 -43 -2 0 11 10 28 23 38 21 17 43 43 35 43 -2 0 -20 -12 -41 -27z
m-20 -240 c-2 -21 -4 -4 -4 37 0 41 2 58 4 38 2 -21 2 -55 0 -75z m0 -1440
c-1 -252 -2 -49 -2 452 0 501 1 707 2 458 2 -248 2 -658 0 -910z"/>
<path d="M1302 2382 c-43 -2 -70 -7 -67 -12 8 -13 342 -13 350 0 4 6 -6 10
-22 11 -106 3 -198 4 -261 1z"/>
<path d="M673 2353 c104 -2 270 -2 370 0 100 1 16 2 -188 2 -203 0 -285 -1
-182 -2z"/>
<path d="M1823 2353 c119 -2 315 -2 435 0 119 1 21 2 -218 2 -239 0 -337 -1
-217 -2z"/>
<path d="M163 1528 c-2 -792 -1 -828 16 -828 10 0 34 -11 54 -24 28 -19 44
-23 75 -19 42 6 84 -11 116 -46 18 -20 27 -21 250 -19 131 1 178 4 109 5
l-123 4 0 84 0 85 128 -4 c88 -2 137 1 160 10 l32 13 0 160 c0 106 4 161 10
161 7 0 10 -55 8 -164 -2 -90 0 -162 4 -159 5 2 8 76 8 164 l0 159 30 0 30 0
1 -152 c1 -84 4 -182 8 -218 4 -36 5 33 3 153 -4 160 -2 217 6 217 9 0 13 -48
14 -162 l2 -163 6 165 c3 91 4 167 3 169 -1 2 -37 6 -80 8 -43 3 -85 8 -93 12
-8 4 -31 7 -50 6 -19 -1 -89 -3 -155 -6 l-120 -4 -3 273 -2 273 162 -1 c173
-2 321 8 313 19 -2 4 -20 6 -40 5 l-36 -3 2 294 c1 164 5 295 10 295 5 0 9 -8
9 -17 1 -14 4 -12 15 7 l13 25 6 -25 c3 -14 7 -36 9 -50 3 -14 5 -3 6 23 1 64
21 52 21 -13 0 -47 -1 -49 -27 -47 -22 2 -29 9 -34 32 -5 30 -5 30 -10 -7 -5
-38 -5 -38 31 -39 19 0 46 -2 60 -5 113 -18 167 -29 248 -51 52 -13 96 -22 99
-19 3 3 5 41 4 83 -1 43 3 85 9 93 7 11 10 -11 10 -72 0 -49 1 -88 3 -88 1 0
47 11 101 25 130 33 153 33 168 -2 l12 -28 4 24 c2 15 -4 31 -17 45 -13 13
-21 16 -21 8 0 -10 -4 -9 -16 2 -21 21 -35 20 -28 -1 3 -10 -2 -7 -10 7 l-15
25 -1 -27 c0 -34 -25 -38 -33 -6 -4 12 -4 40 -1 62 l6 41 137 -2 c189 -3 251
-7 251 -16 0 -5 4 -6 9 -2 9 5 11 -173 10 -1140 -1 -610 -4 -843 -12 -851 -4
-4 -41 -9 -83 -10 -91 -3 -112 -14 -28 -15 32 0 78 -1 102 -3 l42 -2 0 1026 0
1026 -562 2 -563 2 2 -257 c1 -142 2 -275 2 -295 1 -27 5 -38 16 -38 13 0 15
38 15 284 0 179 4 287 10 291 7 4 10 -96 10 -294 l0 -300 -22 1 c-13 1 -105 1
-205 0 l-183 -2 0 -295 0 -296 186 1 c102 1 189 -1 192 -5 4 -3 0 -10 -8 -15
-12 -7 -16 -37 -18 -125 -2 -64 -2 -121 1 -128 2 -7 5 -16 5 -21 0 -5 6 -13
14 -17 7 -5 -88 -8 -217 -8 -126 1 -216 4 -200 8 l30 7 -32 5 c-20 3 -31 1
-30 -5 1 -7 -22 -12 -55 -14 -91 -5 -69 -23 25 -21 45 1 101 1 125 1 l42 -2 0
-84 0 -84 -93 -1 c-93 -1 -93 -1 -133 34 -21 19 -45 35 -52 35 -7 0 -10 5 -7
10 4 6 -5 5 -19 -2 -15 -6 -28 -9 -30 -7 -2 2 -6 28 -8 58 -5 46 -3 54 13 58
13 4 18 13 17 30 -2 22 -4 23 -15 7 -7 -10 -13 -21 -13 -26 0 -4 -12 -8 -27
-8 -24 -1 -25 -2 -10 -11 11 -6 17 -22 17 -43 0 -40 -8 -49 -26 -31 -17 16
-18 77 -3 92 8 8 11 129 10 414 -1 222 -4 405 -6 408 -3 2 -5 -160 -5 -360 0
-229 -4 -377 -11 -399 -6 -19 -10 -55 -10 -80 0 -25 -4 -52 -9 -60 -7 -11 -10
-11 -10 -2 0 7 -4 10 -10 7 -6 -3 -10 4 -10 17 0 16 -3 19 -9 10 -4 -7 -7 196
-7 452 1 256 -1 460 -4 454 -3 -7 -7 147 -10 342 -4 246 -6 100 -7 -472z m967
711 c0 -37 -4 -58 -10 -54 -18 11 -12 115 7 115 2 0 3 -27 3 -61z m30 0 c0
-37 -4 -58 -10 -54 -18 11 -12 115 7 115 2 0 3 -27 3 -61z m40 -5 c0 -58 -15
-74 -22 -24 -6 40 2 91 13 84 5 -3 9 -30 9 -60z m30 1 c0 -37 -4 -65 -10 -65
-11 0 -14 113 -3 123 12 13 13 7 13 -58z m77 38 c3 9 9 17 14 17 5 0 9 -8 10
-17 0 -14 2 -13 9 5 16 38 20 25 20 -58 0 -47 -4 -80 -10 -80 -5 0 -11 17 -11
38 -1 27 -3 30 -6 12 -7 -39 -23 -49 -23 -14 l-1 29 -14 -25 c-13 -23 -14 -23
-16 -5 -1 11 -2 31 -1 45 1 23 1 23 -8 5 -5 -11 -9 -30 -9 -43 -1 -13 -5 -20
-11 -17 -5 3 -10 33 -10 66 0 33 4 59 10 59 6 0 10 -10 11 -22 0 -20 2 -19 11
7 l11 29 10 -24 c8 -21 11 -22 14 -7z m153 -58 c0 -50 -4 -85 -10 -85 -5 0
-11 12 -11 28 -1 20 -2 22 -6 7 -9 -35 -23 -41 -24 -9 l0 29 -10 -25 c-15 -37
-29 -8 -29 62 0 61 14 84 29 46 l10 -23 0 23 c1 37 21 14 23 -26 l1 -37 4 35
c10 92 23 78 23 -25z m80 68 c0 10 5 15 10 12 6 -3 10 -37 10 -76 0 -71 -19
-100 -21 -31 -1 20 -3 28 -6 17 -14 -70 -14 -70 -23 -55 -4 8 -7 33 -6 55 2
22 3 53 4 69 2 28 3 29 17 10 13 -18 14 -18 15 -1z m50 -59 c0 -47 -4 -73 -10
-69 -18 11 -12 145 7 145 2 0 3 -34 3 -76z m32 -16 c-2 -27 -8 -45 -13 -42
-11 6 -12 94 -2 120 6 16 8 15 13 -6 3 -14 4 -46 2 -72z"/>
<path d="M190 2240 c3 -32 9 -62 12 -66 9 -8 -2 109 -11 118 -4 4 -4 -19 -1
-52z"/>
<path d="M1670 2243 c0 -9 9 -14 23 -13 12 1 54 2 92 1 l70 -1 2 -115 c1 -63
-2 -115 -6 -115 -13 0 -21 27 -21 66 0 40 -19 46 -21 7 -1 -16 0 -32 1 -38 1
-5 3 -20 4 -32 1 -15 14 -28 45 -43 34 -16 42 -25 38 -40 -3 -11 -2 -20 3 -20
19 0 17 41 -3 55 -21 14 -22 23 -22 158 l0 142 -102 1 c-82 1 -103 -2 -103
-13z"/>
<path d="M1038 2154 c-5 -4 2 -14 13 -22 16 -11 23 -12 28 -3 6 9 11 7 21 -4
13 -16 15 -15 21 2 7 16 8 15 8 -4 1 -13 5 -23 10 -23 5 0 12 10 14 23 4 19 4
18 6 -5 1 -33 21 -38 21 -6 0 28 17 12 23 -22 3 -21 5 -19 6 8 1 41 21 33 21
-9 0 -16 5 -29 11 -29 6 0 8 8 5 18 -3 9 -1 24 4 32 7 11 10 5 10 -22 0 -47
17 -50 23 -5 4 31 4 31 5 -6 2 -35 4 -38 25 -31 12 3 42 17 67 29 37 19 41 23
20 23 -25 0 -42 4 -70 15 -53 21 -280 54 -292 41z"/>
<path d="M1670 2120 c0 -35 15 -39 39 -8 12 14 20 18 25 10 4 -7 -10 -22 -38
-39 -26 -15 -46 -30 -46 -33 0 -6 152 -61 157 -56 9 9 -11 36 -23 32 -10 -4
-14 5 -14 34 0 21 -7 45 -15 54 -8 8 -15 19 -15 25 0 6 -16 11 -35 11 -32 0
-35 -2 -35 -30z"/>
<path d="M1555 2116 l-70 -22 63 -18 c72 -20 92 -16 92 17 0 13 5 28 12 35 18
18 -15 14 -97 -12z"/>
<path d="M20 2047 c0 -37 4 -67 9 -67 8 0 3 119 -5 129 -2 2 -4 -26 -4 -62z"/>
<path d="M207 1467 c2 -342 5 -631 7 -642 2 -11 4 267 5 617 0 350 -2 639 -6
641 -5 3 -7 -275 -6 -616z"/>
<path d="M1100 1901 c0 -104 2 -195 5 -203 5 -12 92 -15 323 -9 13 1 21 4 19
9 -3 4 -50 6 -106 6 l-100 -1 -4 106 -3 106 -2 -106 -2 -106 -46 1 -46 0 4
116 c3 133 5 137 87 183 51 29 53 32 31 37 -19 5 -26 2 -28 -13 -2 -11 -9 -16
-18 -13 -8 3 -14 -1 -14 -9 0 -8 -4 -15 -10 -15 -5 0 -10 18 -10 40 0 22 -4
40 -10 40 -5 0 -10 -25 -10 -55 0 -34 -4 -55 -11 -55 -8 0 -10 19 -6 60 3 33
1 60 -4 60 -5 0 -9 -83 -9 -190 0 -125 -4 -190 -10 -190 -7 0 -10 65 -8 195 2
107 0 195 -4 195 -5 0 -8 -85 -8 -189z"/>
<path d="M1451 2060 c14 -11 18 -19 11 -20 -7 0 -10 -4 -7 -10 3 -6 -1 -7 -9
-4 -10 4 -16 1 -16 -9 0 -8 9 -17 20 -20 22 -6 48 17 30 28 -7 4 -7 12 0 25
15 28 13 30 -21 30 l-31 0 23 -20z"/>
<path d="M1371 2050 c-40 -15 -42 -17 -20 -23 14 -4 26 -1 31 6 5 8 8 7 8 -5
0 -30 20 -20 21 10 0 20 2 22 7 10 5 -12 12 -14 21 -9 11 7 10 11 -5 19 -14 7
-31 5 -63 -8z"/>
<path d="M1494 2055 c-10 -26 6 -37 45 -30 56 11 58 17 10 31 -54 17 -49 17
-55 -1z"/>
<path d="M1596 2028 c-15 -47 -16 -68 -3 -68 10 0 13 8 10 24 -3 13 0 27 6 30
7 5 11 -4 11 -23 0 -17 5 -31 10 -31 6 0 10 11 10 25 0 38 28 32 32 -7 3 -33
3 -33 80 -45 43 -6 81 -13 85 -16 4 -2 17 -1 28 3 17 6 13 11 -30 32 -42 22
-217 88 -231 88 -3 0 -6 -6 -8 -12z"/>
<path d="M1250 1994 c-78 -44 -98 -74 -50 -74 13 0 17 5 13 19 -3 10 0 22 6
25 7 5 11 -3 12 -21 1 -27 1 -27 9 5 10 43 20 52 20 19 0 -36 20 -35 21 1 2
23 2 24 6 5 7 -34 23 -28 23 9 0 36 15 28 23 -12 3 -17 5 -13 4 10 -2 45 -26
49 -87 14z"/>
<path d="M1545 2011 c-19 -8 -19 -8 2 -19 28 -16 29 -15 29 8 0 22 -2 22 -31
11z"/>
<path d="M1462 1848 c2 -134 5 -118 10 45 2 48 0 87 -4 87 -5 0 -7 -60 -6
-132z"/>
<path d="M1074 1850 c0 -69 1 -97 3 -62 2 34 2 90 0 125 -2 34 -3 6 -3 -63z"/>
<path d="M1428 1963 c-2 -5 -1 -60 3 -123 l5 -115 2 123 c2 110 -1 137 -10
115z"/>
<path d="M1490 1848 c0 -67 2 -119 4 -117 9 10 14 239 6 239 -6 0 -10 -50 -10
-122z"/>
<path d="M1528 1868 c4 -142 9 -155 11 -30 1 149 20 140 23 -11 l2 -112 5 115
c3 63 6 116 6 117 0 1 -11 4 -25 8 l-25 6 3 -93z"/>
<path d="M1334 1830 c0 -63 1 -89 3 -57 2 31 2 83 0 115 -2 31 -3 5 -3 -58z"/>
<path d="M1362 1833 c1 -110 5 -97 10 35 2 39 0 72 -4 72 -5 0 -7 -48 -6 -107z"/>
<path d="M1592 1833 c1 -110 5 -97 10 35 2 39 0 72 -4 72 -5 0 -7 -48 -6 -107z"/>
<path d="M1621 1868 c1 -112 16 -129 18 -20 1 55 -3 92 -9 92 -6 0 -10 -30 -9
-72z"/>
<path d="M1299 1923 c-3 -32 1 -157 6 -161 3 -3 5 34 5 81 0 48 -2 87 -5 87
-3 0 -5 -3 -6 -7z"/>
<path d="M1261 1818 c2 -115 7 -106 11 20 2 45 0 82 -4 82 -5 0 -7 -46 -7
-102z"/>
<path d="M1161 1824 c4 -114 17 -117 17 -4 0 52 -4 90 -10 90 -5 0 -8 -35 -7
-86z"/>
<path d="M1204 1815 c0 -55 1 -76 3 -47 2 29 2 74 0 100 -2 26 -3 2 -3 -53z"/>
<path d="M1837 1880 c-3 -10 -1 -20 5 -22 20 -7 12 -278 -9 -278 -9 0 -11 12
-9 41 3 23 1 51 -4 63 -8 20 -9 20 -11 1 -1 -11 -1 -39 1 -62 1 -33 -2 -43
-13 -43 -16 0 -25 60 -19 138 3 45 31 62 33 20 0 -22 1 -22 9 -3 6 16 9 10 12
-25 l5 -45 1 41 c3 54 -23 79 -69 69 -17 -4 -27 -10 -21 -14 6 -3 11 -40 12
-81 2 -99 2 -97 -15 -97 -11 0 -14 17 -14 85 0 46 -2 87 -5 90 -3 3 -6 -4 -6
-16 0 -12 -4 -22 -10 -22 -5 0 -11 -33 -13 -72 -2 -40 -4 -8 -5 72 0 80 -1
151 -2 158 0 6 -4 12 -10 12 -6 0 -10 -60 -10 -160 l0 -160 95 0 96 0 -7 -37
c-9 -52 -13 -57 -35 -37 -26 24 -103 23 -121 -1 -4 -5 -8 2 -8 18 0 15 -4 27
-10 27 -6 0 -10 -27 -10 -62 l0 -63 20 32 c21 35 55 49 95 39 60 -15 85 -126
44 -192 -19 -31 -25 -34 -68 -34 -44 0 -49 3 -69 38 l-22 37 0 -51 0 -50 94 2
93 2 -3 -61 c-2 -46 -6 -61 -16 -58 -40 13 -96 12 -111 -3 -31 -32 -42 -19
-46 54 -5 98 -11 45 -11 -96 l0 -149 65 -3 c72 -3 113 11 96 32 -6 7 -8 15 -5
18 3 4 9 28 14 55 8 44 9 42 6 -24 -2 -44 1 -74 7 -76 6 -2 7 -8 3 -15 -4 -7
-37 -10 -96 -8 l-90 2 0 -43 c0 -25 -4 -53 -10 -63 -17 -31 33 -44 115 -29 41
7 62 15 54 19 -7 5 -21 7 -31 5 -13 -3 -18 2 -18 21 0 25 -14 32 -26 12 -4 -6
-2 -14 4 -16 29 -9 8 -22 -38 -22 -27 0 -50 5 -50 10 0 6 16 10 35 10 19 0 35
5 35 11 0 5 -4 8 -9 5 -5 -3 -11 9 -13 28 -3 30 -1 34 20 34 13 -1 26 -7 29
-14 3 -9 13 -12 29 -8 14 4 34 0 48 -9 l24 -16 4 67 c3 37 4 238 3 447 -3 556
-3 545 -19 545 -7 0 -16 -9 -19 -20z m-78 -837 c-1 -38 -7 -72 -13 -76 -8 -6
-7 -10 2 -14 17 -7 15 -20 -3 -20 -19 0 -22 87 -2 88 10 0 10 2 0 6 -19 7 -17
83 2 83 13 0 15 -13 14 -67z m51 51 c0 -8 5 -12 10 -9 6 4 10 -7 9 -27 0 -27
-2 -30 -9 -13 -8 18 -9 18 -10 -5 -1 -14 -1 -43 0 -66 1 -30 -3 -41 -14 -41
-12 0 -15 18 -18 89 -3 78 -1 88 15 88 9 0 17 -7 17 -16z"/>
<path d="M1034 1805 c0 -49 1 -71 3 -48 2 23 2 64 0 90 -2 26 -3 8 -3 -42z"/>
<path d="M2694 1765 c0 -60 1 -84 3 -52 2 32 2 81 0 110 -2 29 -3 3 -3 -58z"/>
<path d="M1586 1695 c-3 -9 0 -12 9 -9 12 5 15 -14 18 -103 l3 -108 2 111 c2
89 -1 113 -12 117 -8 3 -17 0 -20 -8z"/>
<path d="M2689 1628 c-4 -117 0 -1161 5 -1165 3 -4 6 262 6 590 0 329 -2 597
-5 597 -3 0 -5 -10 -6 -22z"/>
<path d="M1720 1455 c-15 -18 -21 -115 -7 -115 4 0 6 -4 2 -9 -6 -11 13 -26
22 -17 3 3 1 12 -6 19 -14 17 -4 47 15 47 8 0 23 -15 34 -32 25 -41 26 -61 1
-29 -16 21 -19 22 -25 6 -3 -10 -5 -18 -4 -19 2 -1 12 -6 23 -12 24 -13 39 -1
56 42 21 56 -20 134 -71 134 -15 0 -33 -7 -40 -15z m68 -31 c12 -8 22 -24 22
-35 0 -24 -4 -24 -43 3 -18 13 -34 24 -36 25 -1 1 0 6 4 12 9 15 27 14 53 -5z"/>
<path d="M1612 1191 l-2 -74 -142 7 c-159 8 -317 8 -330 0 -4 -3 -7 -80 -6
-172 l2 -167 6 163 c3 89 8 162 13 162 4 0 16 0 27 0 19 0 20 -7 20 -160 0
-100 -4 -160 -10 -160 -6 0 -10 55 -10 144 0 86 -4 147 -10 151 -6 4 -10 -46
-10 -143 0 -128 2 -151 16 -156 9 -3 20 -4 25 0 5 3 9 77 9 165 0 214 19 212
23 -3 l3 -163 2 162 c2 159 2 162 25 165 12 2 32 2 45 0 22 -4 22 -6 22 -163
0 -87 3 -160 8 -162 4 -3 6 69 4 159 -2 107 1 164 7 164 7 0 12 -60 14 -162
l3 -163 2 163 2 162 30 0 30 0 3 -162 3 -163 2 163 c1 97 6 162 12 162 6 0 11
-66 13 -162 l3 -163 2 163 c1 100 6 162 12 162 6 0 10 -60 10 -161 0 -88 4
-158 8 -155 4 2 7 75 7 160 -1 123 1 156 11 156 11 0 14 -37 17 -162 l3 -163
2 163 c1 97 6 162 12 162 6 0 11 -66 13 -162 l3 -163 2 163 c1 100 6 162 12
162 6 0 11 -62 12 -162 l2 -163 3 160 c2 94 8 162 14 165 6 4 9 37 6 81 l-3
74 -2 -74z"/>
<path d="M1626 1094 c-10 -76 -7 -304 4 -304 6 0 10 65 10 175 0 96 -2 175 -4
175 -2 0 -6 -21 -10 -46z"/>
<path d="M1034 945 c0 -88 2 -123 3 -77 2 46 2 118 0 160 -1 42 -3 5 -3 -83z"/>
<path d="M1260 945 c0 -87 3 -156 6 -152 7 7 5 299 -1 306 -3 2 -5 -67 -5
-154z"/>
<path d="M1296 1073 c-8 -33 -5 -273 5 -278 5 -4 9 53 9 144 0 145 -3 172 -14
134z"/>
<path d="M1399 1073 c-7 -44 -7 -235 0 -258 7 -21 10 14 10 118 1 81 -1 147
-4 147 -3 0 -6 -3 -6 -7z"/>
<path d="M433 1038 c-6 -7 -14 -37 -18 -65 -4 -29 -11 -55 -16 -59 -5 -3 -9
-23 -9 -45 0 -36 2 -39 29 -39 29 0 68 27 56 38 -3 4 -10 0 -14 -7 -14 -22
-22 3 -27 86 -3 54 -1 79 8 84 7 4 10 11 7 14 -4 3 -11 0 -16 -7z"/>
<path d="M194 637 c3 -10 6 -21 6 -23 0 -3 5 -2 10 1 6 3 10 2 10 -3 0 -6 9
-8 20 -5 11 3 20 0 20 -6 0 -6 -6 -11 -12 -11 -10 0 -10 -2 -1 -8 18 -12 73
-147 73 -181 0 -21 -9 -36 -32 -55 -18 -14 -41 -33 -50 -42 -16 -16 -17 -15
-13 5 2 11 -1 21 -6 21 -5 0 -9 -6 -7 -13 4 -20 -13 -58 -24 -55 -6 2 -13 14
-15 27 -2 17 1 22 12 17 8 -3 15 0 15 5 0 6 -9 9 -19 6 -11 -3 -21 1 -23 8 -2
8 -9 7 -22 -6 -18 -17 -18 -18 3 -12 12 3 21 1 22 -3 0 -5 2 -19 5 -32 3 -16
0 -21 -8 -16 -7 5 -8 3 -4 -5 5 -7 14 -10 22 -7 12 5 12 2 0 -17 -15 -23 -16
-43 -3 -65 5 -7 3 -12 -3 -12 -6 0 -8 -5 -5 -10 4 -6 9 -8 13 -6 4 2 13 -2 20
-10 11 -12 9 -13 -10 -11 -13 1 -25 5 -28 9 -3 4 -12 3 -20 -2 -24 -15 -7 -20
76 -25 l79 -5 -35 17 c-32 17 -80 74 -80 95 0 23 134 148 174 163 33 12 182
35 234 35 6 0 12 4 12 9 0 4 -12 8 -27 7 -20 -1 -27 4 -28 21 -2 25 -34 77
-42 69 -4 -3 2 -15 12 -26 20 -22 15 -44 -14 -60 -17 -9 -21 -8 -21 5 0 13 -5
12 -29 -6 -29 -22 -31 -22 -58 -4 -22 15 -25 15 -15 2 12 -14 11 -16 -6 -14
-14 1 -19 7 -17 20 4 18 -58 141 -76 153 -5 3 -9 14 -9 25 0 10 -6 19 -12 20
-32 2 -52 9 -60 21 -7 9 -8 8 -4 -5z"/>
<path d="M1626 638 c-9 -5 -16 -17 -16 -27 0 -20 -25 -35 -41 -25 -5 3 -9 -18
-8 -48 1 -38 3 -46 8 -28 6 22 8 23 14 7 4 -10 7 -33 8 -50 l1 -32 8 34 c4 18
4 47 0 63 -7 22 -5 30 6 35 18 7 44 -3 44 -18 0 -6 -7 -9 -15 -5 -13 5 -14 2
-4 -17 12 -21 13 -21 25 13 12 32 13 25 12 -80 -2 -136 -4 -150 -30 -150 -13
0 -18 -6 -16 -17 2 -10 12 -18 23 -18 11 1 23 -4 27 -10 5 -7 8 -7 8 1 0 6 13
9 33 6 l32 -5 -30 -8 c-16 -5 -48 -7 -70 -4 -22 2 -32 2 -23 -1 12 -4 17 -16
16 -43 0 -21 4 -47 10 -58 24 -45 8 -48 -222 -47 -119 1 -232 5 -252 9 l-36 6
6 51 c5 33 4 48 -4 43 -5 -3 -10 1 -10 9 0 14 18 16 118 17 64 1 142 4 172 9
l55 7 -50 2 c-44 1 -48 3 -32 15 14 11 22 66 8 66 -10 0 -30 -37 -31 -57 0
-22 -3 -23 -109 -23 l-110 0 9 31 c5 18 12 34 15 38 4 3 43 8 88 11 l82 5 -6
90 -5 90 -2 -82 c-2 -85 -22 -130 -22 -49 0 25 -4 47 -9 50 -4 3 -6 -6 -3 -19
5 -29 -6 -80 -16 -70 -4 3 -10 37 -13 73 l-6 67 -1 -74 c-2 -53 -5 -72 -13
-64 -6 6 -9 50 -7 117 2 58 0 106 -4 106 -5 0 -8 -52 -8 -115 0 -137 -19 -160
-22 -27 l-2 87 -3 -85 c-2 -47 -8 -89 -13 -94 -7 -7 -10 0 -10 19 0 32 -12 27
-17 -8 -9 -65 -19 -39 -24 68 l-6 120 0 -122 c0 -67 -4 -126 -7 -132 -4 -6 -2
-11 3 -11 6 0 11 -4 11 -9 0 -6 -21 -8 -46 -6 -46 4 -84 27 -84 51 0 9 -8 10
-28 5 -21 -6 -28 -14 -30 -41 -3 -27 -1 -32 13 -26 9 3 19 6 21 6 2 0 -3 11
-12 25 -14 21 -14 24 -2 20 9 -4 20 -17 27 -31 8 -17 18 -25 34 -23 12 1 37
-2 55 -6 l32 -7 0 -69 c0 -37 3 -70 8 -73 4 -2 125 -7 270 -10 l262 -6 11 27
c7 19 7 29 0 31 -6 2 -11 25 -11 51 l0 48 82 6 c45 4 86 11 90 15 15 15 -2 60
-25 66 -19 5 -20 8 -7 16 10 6 11 10 3 10 -16 0 -17 36 -3 45 16 10 4 88 -16
102 -10 7 -21 13 -24 13 -13 0 -41 -26 -43 -40 -2 -15 -9 -20 -25 -20 -11 0
-9 84 3 93 6 4 5 11 -5 16 -16 11 -11 14 35 24 15 4 13 5 -7 6 -14 0 -28 6
-30 12 -3 8 -10 8 -25 -2 -25 -15 -38 -8 -29 17 5 13 10 14 18 6 8 -8 16 -7
30 1 16 10 22 9 34 -7 11 -16 14 -17 14 -4 0 8 -6 20 -13 26 -15 13 -68 13
-91 0z m164 -193 c0 -28 -5 -47 -15 -52 -8 -5 -16 -24 -17 -43 -2 -19 -7 -39
-13 -43 -5 -5 7 -7 28 -5 20 2 37 1 37 -2 0 -12 -24 -30 -39 -30 -14 0 -14 1
-1 10 11 7 -2 10 -45 11 -33 0 -55 3 -49 5 7 3 9 23 6 54 l-5 50 36 0 c35 0
36 0 26 32 -14 51 -12 58 21 58 29 0 30 -2 30 -45z"/>
<path d="M324 591 c0 -31 4 -38 16 -32 8 4 25 6 38 5 12 0 22 3 22 7 0 5 -9 9
-21 9 -11 0 -17 5 -14 10 3 6 -3 10 -14 10 -23 0 -28 15 -8 23 7 4 6 6 -4 6
-13 1 -16 -8 -15 -38z"/>
<path d="M1465 611 c-3 -11 -15 -23 -25 -26 -11 -3 -17 -12 -14 -20 3 -8 12
-11 19 -9 9 4 13 -5 13 -31 0 -43 8 -54 25 -36 9 11 9 14 0 18 -7 3 -13 12
-13 20 0 15 20 14 62 -2 26 -10 15 53 -14 80 -33 30 -45 31 -53 6z m44 -22
c11 -18 11 -23 -1 -30 -17 -11 -43 15 -35 35 9 22 20 20 36 -5z"/>
<path d="M949 475 c-1 -63 -2 -121 -3 -127 -1 -7 7 -14 17 -16 15 -3 17 8 17
121 0 102 -3 126 -15 131 -13 5 -15 -12 -16 -109z"/>
<path d="M1102 433 c2 -149 5 -131 10 50 2 53 0 97 -4 97 -5 0 -7 -66 -6 -147z"/>
<path d="M1859 553 c0 -16 -2 -67 -2 -115 -2 -63 -6 -88 -14 -88 -7 0 -13 -4
-13 -10 0 -5 5 -10 11 -10 6 0 9 -9 6 -20 -3 -11 -1 -18 4 -14 5 3 9 0 9 -5 0
-6 3 -11 8 -11 4 0 7 67 7 150 0 82 -3 150 -7 150 -5 0 -8 -12 -9 -27z"/>
<path d="M367 532 c10 -15 22 -30 28 -34 6 -4 1 -8 -9 -8 -16 0 -18 -2 -7 -12
10 -11 15 -9 26 6 8 10 19 15 25 11 8 -5 8 -10 0 -20 -14 -16 -5 -35 16 -35
10 0 14 11 14 38 0 20 -4 32 -8 25 -5 -8 -12 -8 -25 2 -18 13 -18 14 1 24 11
6 22 8 26 6 3 -3 3 0 -2 5 -5 6 -20 6 -40 1 -18 -5 -32 -6 -32 -1 0 4 -7 10
-15 14 -12 4 -12 1 2 -22z"/>
<path d="M1004 440 c0 -58 1 -81 3 -52 2 28 2 76 0 105 -2 28 -3 5 -3 -53z"/>
<path d="M1433 470 c0 -41 2 -58 4 -37 2 20 2 54 0 75 -2 20 -4 3 -4 -38z"/>
<path d="M1166 478 c-8 -32 -7 -66 2 -71 4 -3 8 17 8 44 2 54 -1 61 -10 27z"/>
<path d="M1361 418 c0 -49 2 -88 7 -88 4 0 6 28 4 62 -5 107 -9 117 -11 26z"/>
<path d="M1626 430 c2 -97 14 -102 14 -7 0 43 -4 77 -8 77 -5 0 -8 -32 -6 -70z"/>
<path d="M1073 415 c0 -38 2 -53 4 -32 2 20 2 52 0 70 -2 17 -4 1 -4 -38z"/>
<path d="M1484 472 c-14 -9 -24 -90 -14 -122 7 -21 8 -18 11 20 l2 45 7 -45
c6 -37 7 -33 4 23 -3 67 3 80 25 53 8 -10 9 -16 1 -21 -13 -8 -13 -45 1 -65 7
-11 9 -5 7 25 -2 38 -1 40 25 37 20 -2 25 1 21 13 -3 8 -16 15 -29 15 -13 0
-25 7 -29 15 -6 16 -15 19 -32 7z"/>
<path d="M566 451 c-5 -8 12 -11 56 -11 35 -1 81 -7 103 -15 46 -17 52 -15 26
9 -24 22 -174 36 -185 17z"/>
<path d="M817 323 c2 -21 4 -50 4 -64 1 -14 -5 -40 -14 -58 -10 -20 -12 -31
-5 -29 7 3 20 21 31 41 20 39 17 99 -6 132 -10 13 -12 10 -10 -22z"/>
<path d="M1228 303 c17 -2 47 -2 65 0 17 2 3 4 -33 4 -36 0 -50 -2 -32 -4z"/>
<path d="M1515 300 c-4 -6 8 -10 29 -10 20 0 36 5 36 10 0 6 -13 10 -29 10
-17 0 -33 -4 -36 -10z"/>
<path d="M2343 208 c-10 -3 13 -7 51 -7 38 -1 67 1 64 4 -8 9 -96 11 -115 3z"/>
<path d="M2488 208 c-22 -6 -22 -6 5 -8 60 -6 262 -1 255 5 -7 8 -234 11 -260
3z"/>
<path d="M2766 201 c-12 -13 -12 -19 -2 -33 7 -10 17 -18 21 -18 5 0 0 9 -9
19 -17 18 -16 20 4 26 27 9 92 -3 85 -15 -3 -5 -1 -11 4 -14 12 -8 8 21 -5 34
-18 18 -83 18 -98 1z"/>
<path d="M2045 171 c-3 -6 -11 -9 -16 -6 -5 3 -7 0 -4 -7 3 -7 17 -14 30 -14
22 -2 24 0 13 15 -7 9 -13 17 -14 19 -1 2 -5 -2 -9 -7z"/>
<path d="M2326 158 c10 -13 23 -26 28 -29 12 -9 -2 -29 -21 -29 -25 0 -8 -11
21 -14 31 -4 65 32 56 59 -6 18 -7 18 -15 -1 -4 -10 -7 -25 -6 -31 1 -7 -3
-13 -9 -13 -5 0 -9 3 -8 8 4 12 -32 60 -50 67 -13 5 -12 2 4 -17z"/>
<path d="M2843 164 c9 -11 14 -24 10 -29 -5 -4 -3 -5 4 -1 6 3 14 2 18 -4 3
-5 2 -10 -4 -10 -6 0 -8 -7 -5 -15 4 -8 10 -15 15 -15 4 0 6 7 3 15 -4 8 -1
15 6 15 6 0 8 5 5 10 -4 7 5 9 27 5 l33 -5 -25 20 c-14 11 -29 20 -35 20 -5 0
-4 -4 3 -9 11 -7 11 -9 -2 -14 -8 -3 -27 4 -43 16 -26 20 -27 20 -10 1z"/>
<path d="M850 160 c0 -6 -4 -9 -9 -6 -5 4 -12 0 -14 -6 -4 -10 -6 -10 -6 0 -1
8 -6 10 -13 5 -7 -4 -17 -8 -23 -10 -5 -1 -33 -11 -61 -22 -29 -11 -54 -17
-58 -14 -3 4 -6 -3 -6 -15 0 -26 25 -24 -309 -26 -242 -2 -264 -4 -267 -20 -2
-13 2 -15 19 -10 12 4 27 6 32 5 33 -5 415 -6 440 -1 17 4 41 3 53 -1 15 -6
21 -5 17 1 -4 6 6 10 22 11 15 0 38 2 50 3 12 1 20 -1 17 -6 -3 -4 20 -8 50
-8 31 0 56 3 56 8 0 4 24 7 54 6 43 0 53 3 51 15 -1 9 -9 14 -16 12 -8 -3 -35
-7 -61 -9 -27 -2 -45 -8 -42 -13 9 -15 -6 -10 -36 11 -18 13 -31 16 -35 10 -3
-5 -15 -10 -27 -10 -14 0 -18 5 -14 16 3 9 6 18 6 20 0 2 11 4 24 4 13 0 26 5
28 12 5 14 118 19 118 5 0 -5 6 -7 14 -4 7 3 19 0 25 -6 9 -9 14 -8 22 3 8 12
9 11 7 -5 -3 -20 -3 -20 52 -12 3 0 17 -3 33 -7 17 -5 33 -4 42 4 26 22 16 30
-27 24 -41 -5 -42 -5 -23 11 20 17 20 17 0 13 -11 -2 -23 -7 -27 -13 -5 -6 -8
-3 -8 7 0 9 -5 20 -12 24 -7 4 -8 3 -4 -4 4 -7 4 -12 -1 -13 -4 0 -18 -2 -30
-3 -13 -2 -23 2 -23 7 0 5 -7 4 -15 -3 -12 -10 -20 -9 -40 4 -14 10 -25 12
-25 6z"/>
<path d="M1841 153 c0 -12 5 -24 12 -26 6 -3 0 -6 -15 -6 -16 -1 -28 4 -28 12
0 9 -3 8 -9 -2 -7 -11 -11 -9 -20 8 -7 11 -17 21 -24 20 -9 0 -9 -2 1 -6 6 -2
12 -14 12 -24 0 -13 6 -20 18 -18 30 3 43 -1 38 -10 -8 -12 26 -20 61 -13 l28
6 -25 7 -25 7 28 1 c15 1 27 6 27 12 0 6 -6 9 -12 7 -17 -6 -41 19 -33 34 4 7
0 5 -8 -5 -15 -18 -15 -18 -20 0 -4 15 -5 14 -6 -4z"/>
<path d="M1935 160 c-3 -5 -1 -10 4 -10 6 0 11 -7 11 -16 0 -8 -4 -12 -10 -9
-5 3 -10 1 -10 -4 0 -6 8 -12 18 -12 37 -3 60 -6 87 -13 24 -6 25 -5 13 7 -8
8 -24 18 -36 22 -19 5 -21 9 -11 21 16 19 4 30 -16 14 -11 -10 -18 -10 -29 -1
-10 8 -16 9 -21 1z"/>
<path d="M2192 161 c-7 -4 -8 -12 -2 -21 7 -10 10 -11 10 -2 0 6 5 12 11 12 5
0 8 -4 5 -9 -4 -5 3 -7 14 -4 11 3 18 9 15 13 -7 11 -41 18 -53 11z"/>
<path d="M1687 141 c4 -16 11 -21 24 -18 11 3 17 1 13 -4 -3 -5 4 -9 15 -9 12
0 21 5 21 10 0 6 -4 10 -10 10 -5 0 -10 7 -10 15 0 8 -5 15 -11 15 -5 0 -7 -4
-4 -10 9 -14 -18 -13 -32 1 -9 9 -10 6 -6 -10z"/>
<path d="M2463 123 c5 -13 15 -22 21 -21 6 1 21 -1 33 -6 12 -4 31 -2 42 4 16
8 22 7 30 -7 5 -10 13 -14 18 -10 4 5 0 13 -9 18 -9 5 -24 16 -32 24 -16 17
-51 21 -41 5 4 -6 10 -8 15 -5 5 3 11 1 14 -4 15 -24 -17 -19 -41 6 -14 15
-23 22 -19 16 4 -8 1 -13 -9 -13 -9 0 -14 4 -11 8 3 5 -1 9 -8 9 -11 0 -12 -5
-3 -24z"/>
<path d="M2660 141 c0 -7 -4 -9 -10 -6 -5 3 -10 1 -10 -5 0 -6 -5 -8 -12 -3
-20 12 -48 14 -48 3 0 -17 36 -29 78 -26 24 2 45 0 48 -5 2 -4 12 -5 21 -2 12
5 14 3 8 -8 -4 -8 0 -7 11 3 14 14 16 21 6 30 -9 9 -12 9 -12 0 0 -6 -7 -9
-15 -6 -8 4 -13 9 -10 13 2 4 -2 8 -10 8 -8 0 -11 -5 -8 -11 4 -6 -3 -2 -15 8
-14 12 -22 14 -22 7z"/>
<path d="M59 122 c-15 -13 -19 -21 -11 -26 7 -4 12 -2 12 3 0 6 8 11 18 11 14
0 15 -2 2 -10 -8 -5 -12 -11 -10 -14 3 -2 16 4 30 15 22 17 23 19 5 17 -12 -2
-19 2 -17 10 3 16 -2 15 -29 -6z"/>
<path d="M2254 122 c7 -12 -27 -32 -49 -27 -5 1 -7 0 -2 -2 4 -3 7 -12 7 -21
1 -15 2 -15 13 -2 7 9 23 20 36 26 22 9 22 10 5 24 -11 9 -15 10 -10 2z"/>
<path d="M2909 109 c-8 -15 -5 -17 18 -15 16 2 37 4 48 5 15 1 16 4 7 14 -19
18 -62 16 -73 -4z"/>
<path d="M2068 114 c6 -3 10 -9 7 -14 -3 -4 7 -10 20 -13 14 -2 28 0 31 5 8
13 3 16 -36 22 -19 3 -29 3 -22 0z"/>
<path d="M433 93 c32 -2 81 -2 110 0 29 2 3 3 -58 3 -60 0 -84 -1 -52 -3z"/>
<path d="M1686 89 c3 -5 28 -9 56 -9 28 0 48 3 45 7 -11 10 -108 12 -101 2z"/>
<path d="M2945 80 c-3 -5 -1 -10 5 -10 6 0 8 -5 4 -11 -4 -7 -1 -10 7 -7 20 7
24 38 5 38 -8 0 -18 -4 -21 -10z"/>
</g>
</svg>
